<svg xmlns="http://www.w3.org/2000/svg" width="1600" height="560" viewBox="0 0 1600 560">
<defs>
  <linearGradient id="dark" x1="0" y1="0" x2="1" y2="1">
    <stop offset="0" stop-color="#171717"/>
    <stop offset="1" stop-color="#090909"/>
  </linearGradient>
  <radialGradient id="halo" cx="50%" cy="50%" r="50%">
    <stop offset="0" stop-color="#3b3b3b"/>
    <stop offset="1" stop-color="#111" stop-opacity="0"/>
  </radialGradient>
</defs>

<circle cx="390" cy="275" r="280" fill="url(#halo)" opacity=".72"/>

<!-- abstract system graph; deliberately conceptual, not fake UI -->
<g fill="none" stroke="#424242" stroke-width="1.5">
  <path d="M120 185 L280 120 L430 205 L590 132 L710 245 L570 340 L402 300 L250 390 L120 318 Z"/>
  <path d="M280 120 L250 390 M430 205 L402 300 M590 132 L570 340 M120 185 L710 245"/>
</g>
<g fill="#d9d9d9">
  <circle cx="120" cy="185" r="6"/><circle cx="280" cy="120" r="6"/>
  <circle cx="430" cy="205" r="6"/><circle cx="590" cy="132" r="6"/>
  <circle cx="710" cy="245" r="6"/><circle cx="570" cy="340" r="6"/>
  <circle cx="402" cy="300" r="6"/><circle cx="250" cy="390" r="6"/>
  <circle cx="120" cy="318" r="6"/>
</g>

<text x="910" y="135" font-family="ui-monospace,SFMono-Regular,Menlo,Consolas,monospace"
      font-size="15" letter-spacing="3" fill="#777">BUILDING / WIP</text>
<text x="900" y="255" font-family="Inter,Helvetica Neue,Arial,sans-serif"
      font-size="112" font-weight="750" letter-spacing="-5" fill="#f3f3f3">Nixview_</text>
<text x="907" y="316" font-family="ui-monospace,SFMono-Regular,Menlo,Consolas,monospace"
      font-size="22" letter-spacing="1.2" fill="#aaa">see what NixOS is actually doing.</text>
<line x1="907" y1="360" x2="1480" y2="360" stroke="#303030"/>
<text x="907" y="408" font-family="ui-monospace,SFMono-Regular,Menlo,Consolas,monospace"
      font-size="17" letter-spacing="1.7" fill="#7f7f7f">
  generations / flakes / services / store / packages
</text>
</svg>